<svg width="25" height="24" viewBox="0 0 25 24" fill="none" xmlns="http://www.w3.org/2000/svg">
<path d="M7.98438 9.34814H3.48438V4.84814" stroke="white" stroke-width="2" stroke-linecap="round" stroke-linejoin="round"/>
<path d="M18.3336 6.16637C17.5675 5.40029 16.6581 4.7926 15.6571 4.37799C14.6562 3.96339 13.5834 3.75 12.5 3.75C11.4166 3.75 10.3438 3.96339 9.34285 4.37799C8.34191 4.7926 7.43244 5.40029 6.66635 6.16637L3.48438 9.34835" stroke="white" stroke-width="2" stroke-linecap="round" stroke-linejoin="round"/>
<path d="M17.0156 14.6519H21.5156V19.1519" stroke="white" stroke-width="2" stroke-linecap="round" stroke-linejoin="round"/>
<path d="M6.66638 17.8338C7.43247 18.5999 8.34194 19.2076 9.34287 19.6222C10.3438 20.0368 11.4166 20.2502 12.5 20.2502C13.5834 20.2502 14.6562 20.0368 15.6572 19.6222C16.6581 19.2076 17.5676 18.5999 18.3336 17.8338L21.5156 14.6519" stroke="white" stroke-width="2" stroke-linecap="round" stroke-linejoin="round"/>
</svg>
