<svg width="21" height="20" viewBox="0 0 21 20" fill="none" xmlns="http://www.w3.org/2000/svg">
<path d="M10.5 6.25V10" stroke="white" stroke-width="2" stroke-linecap="round" stroke-linejoin="round"/>
<path d="M13.7476 11.875L10.5 10" stroke="white" stroke-width="2" stroke-linecap="round" stroke-linejoin="round"/>
<path d="M6.11194 7.79053H2.98694V4.66553" stroke="white" stroke-width="2" stroke-linecap="round" stroke-linejoin="round"/>
<path d="M5.63865 14.8614C6.60014 15.8229 7.82514 16.4776 9.15876 16.7429C10.4924 17.0082 11.8747 16.872 13.131 16.3517C14.3872 15.8313 15.4609 14.9501 16.2164 13.8196C16.9718 12.689 17.375 11.3598 17.375 10C17.375 8.64026 16.9718 7.31105 16.2164 6.18046C15.4609 5.04987 14.3872 4.16868 13.131 3.64833C11.8747 3.12798 10.4924 2.99183 9.15876 3.2571C7.82514 3.52238 6.60014 4.17716 5.63865 5.13864L2.987 7.79029" stroke="white" stroke-width="2" stroke-linecap="round" stroke-linejoin="round"/>
</svg>
