<svg width="21" height="20" viewBox="0 0 21 20" fill="none" xmlns="http://www.w3.org/2000/svg">
<path d="M4.02571 15.314C4.04519 15.3961 4.08109 15.4735 4.13126 15.5414C4.18142 15.6093 4.2448 15.6664 4.3176 15.7092C4.39039 15.752 4.47108 15.7796 4.55483 15.7904C4.63857 15.8012 4.72363 15.7949 4.80489 15.772C8.53061 14.7433 12.4654 14.7429 16.1913 15.7709C16.2725 15.7938 16.3576 15.8 16.4413 15.7893C16.525 15.7785 16.6056 15.7509 16.6784 15.7081C16.7512 15.6653 16.8146 15.6083 16.8647 15.5404C16.9149 15.4725 16.9508 15.3952 16.9703 15.3131L18.9616 6.85085C18.9883 6.73756 18.9828 6.61908 18.9457 6.50876C18.9087 6.39843 18.8416 6.30063 18.752 6.22639C18.6623 6.15214 18.5538 6.1044 18.4385 6.08852C18.3232 6.07265 18.2057 6.08929 18.0994 6.13655L14.1475 7.89293C14.0048 7.95635 13.8436 7.96406 13.6955 7.91453C13.5474 7.86501 13.4232 7.76183 13.3473 7.62533L11.0464 3.48358C10.9923 3.38615 10.9131 3.30496 10.817 3.24844C10.7209 3.19192 10.6115 3.16211 10.5 3.16211C10.3886 3.16211 10.2791 3.19192 10.1831 3.24844C10.087 3.30496 10.0078 3.38615 9.95368 3.48358L7.65272 7.62533C7.57688 7.76183 7.45269 7.865 7.3046 7.91453C7.1565 7.96406 6.99523 7.95635 6.85253 7.89293L2.90008 6.13629C2.79375 6.08903 2.67634 6.07239 2.56107 6.08825C2.44579 6.10411 2.33724 6.15183 2.24762 6.22604C2.158 6.30025 2.09088 6.39801 2.05381 6.5083C2.01674 6.6186 2.01119 6.73705 2.0378 6.85033L4.02571 15.314Z" stroke="white" stroke-width="2" stroke-linecap="round" stroke-linejoin="round"/>
<path d="M8 12.6311C9.66208 12.4563 11.3379 12.4563 13 12.6311" stroke="white" stroke-width="2" stroke-linecap="round" stroke-linejoin="round"/>
</svg>
