<svg width="21" height="20" viewBox="0 0 21 20" fill="none" xmlns="http://www.w3.org/2000/svg">
<path d="M4.02564 15.314C4.04513 15.3961 4.08103 15.4735 4.13119 15.5414C4.18136 15.6093 4.24474 15.6664 4.31753 15.7092C4.39033 15.752 4.47102 15.7796 4.55477 15.7904C4.63851 15.8012 4.72357 15.7949 4.80483 15.772C8.53055 14.7433 12.4653 14.7429 16.1912 15.7709C16.2725 15.7938 16.3575 15.8 16.4412 15.7893C16.5249 15.7785 16.6056 15.7509 16.6784 15.7081C16.7511 15.6653 16.8145 15.6083 16.8647 15.5404C16.9148 15.4725 16.9507 15.3952 16.9702 15.3131L18.9616 6.85085C18.9882 6.73756 18.9827 6.61908 18.9457 6.50876C18.9086 6.39843 18.8415 6.30063 18.7519 6.22639C18.6623 6.15214 18.5537 6.1044 18.4384 6.08852C18.3231 6.07265 18.2057 6.08929 18.0993 6.13655L14.1475 7.89293C14.0048 7.95635 13.8435 7.96406 13.6954 7.91453C13.5473 7.86501 13.4231 7.76183 13.3473 7.62533L11.0463 3.48358C10.9922 3.38615 10.913 3.30496 10.8169 3.24844C10.7209 3.19192 10.6114 3.16211 10.5 3.16211C10.3885 3.16211 10.2791 3.19192 10.183 3.24844C10.087 3.30496 10.0078 3.38615 9.95362 3.48358L7.65266 7.62533C7.57682 7.76183 7.45263 7.865 7.30454 7.91453C7.15644 7.96406 6.99517 7.95635 6.85247 7.89293L2.90002 6.13629C2.79369 6.08903 2.67628 6.07239 2.561 6.08825C2.44573 6.10411 2.33718 6.15183 2.24756 6.22604C2.15794 6.30025 2.09081 6.39801 2.05374 6.5083C2.01668 6.6186 2.01113 6.73705 2.03774 6.85033L4.02564 15.314Z" stroke="white" stroke-width="2" stroke-linecap="round" stroke-linejoin="round"/>
<path d="M8 12.6311C9.66208 12.4563 11.3379 12.4563 13 12.6311" stroke="white" stroke-width="2" stroke-linecap="round" stroke-linejoin="round"/>
</svg>
