<svg width="25" height="24" viewBox="0 0 25 24" fill="none" xmlns="http://www.w3.org/2000/svg">
<path d="M12.5 20.25C12.5 20.25 3.125 15 3.125 8.62501C3.12519 7.49826 3.51561 6.40635 4.22989 5.53493C4.94416 4.66351 5.9382 4.06636 7.04299 3.84501C8.14778 3.62367 9.29514 3.79179 10.29 4.32079C11.2848 4.84979 12.0658 5.70702 12.5 6.74673L12.5 6.74673C12.9342 5.70702 13.7152 4.84979 14.71 4.32079C15.7049 3.79179 16.8522 3.62367 17.957 3.84501C19.0618 4.06636 20.0558 4.66351 20.7701 5.53493C21.4844 6.40635 21.8748 7.49826 21.875 8.62501C21.875 15 12.5 20.25 12.5 20.25Z" stroke="white" stroke-width="2" stroke-linecap="round" stroke-linejoin="round"/>
</svg>
