<svg width="48" height="48" viewBox="0 0 48 48" fill="none" xmlns="http://www.w3.org/2000/svg">
<rect width="48" height="48" rx="24" fill="white" fill-opacity="0.2"/>
<path d="M24 33C28.9706 33 33 28.9706 33 24C33 19.0294 28.9706 15 24 15C19.0294 15 15 19.0294 15 24C15 28.9706 19.0294 33 24 33Z" stroke="white" stroke-width="2" stroke-linecap="round" stroke-linejoin="round"/>
<path d="M18.6586 31.2444C19.9936 29.0327 21.8774 27.2036 24.1274 25.9343C26.3774 24.6651 28.9172 23.9987 31.5006 24C32.0065 24 32.5062 24.0247 32.9997 24.074" stroke="white" stroke-width="2" stroke-linecap="round" stroke-linejoin="round"/>
<path d="M29.6277 16.9771C28.2224 18.7044 26.4494 20.0964 24.438 21.0518C22.4265 22.0072 20.2273 22.5018 18.0005 22.4996C17.052 22.5001 16.1056 22.411 15.1738 22.2337" stroke="white" stroke-width="2" stroke-linecap="round" stroke-linejoin="round"/>
<path d="M20.056 15.9082C22.3116 17.2316 24.1817 19.122 25.4808 21.3917C26.7799 23.6613 27.4628 26.2313 27.4616 28.8464C27.4625 30.0717 27.3135 31.2925 27.0181 32.4817" stroke="white" stroke-width="2" stroke-linecap="round" stroke-linejoin="round"/>
</svg>
