<svg width="48" height="48" viewBox="0 0 48 48" fill="none" xmlns="http://www.w3.org/2000/svg">
<rect width="48" height="48" rx="24" fill="white" fill-opacity="0.2"/>
<path d="M31.5 15.75H16.5C16.0858 15.75 15.75 16.0858 15.75 16.5V31.5C15.75 31.9142 16.0858 32.25 16.5 32.25H31.5C31.9142 32.25 32.25 31.9142 32.25 31.5V16.5C32.25 16.0858 31.9142 15.75 31.5 15.75Z" stroke="white" stroke-width="2" stroke-linecap="round" stroke-linejoin="round"/>
<path d="M23.25 22.5V28.5" stroke="white" stroke-width="2" stroke-linecap="round" stroke-linejoin="round"/>
<path d="M20.25 22.5V28.5" stroke="white" stroke-width="2" stroke-linecap="round" stroke-linejoin="round"/>
<path d="M23.25 25.125C23.25 24.4288 23.5266 23.7611 24.0188 23.2688C24.5111 22.7766 25.1788 22.5 25.875 22.5C26.5712 22.5 27.2389 22.7766 27.7312 23.2688C28.2234 23.7611 28.5 24.4288 28.5 25.125V28.5" stroke="white" stroke-width="2" stroke-linecap="round" stroke-linejoin="round"/>
<path d="M20.25 20.625C20.8713 20.625 21.375 20.1213 21.375 19.5C21.375 18.8787 20.8713 18.375 20.25 18.375C19.6287 18.375 19.125 18.8787 19.125 19.5C19.125 20.1213 19.6287 20.625 20.25 20.625Z" fill="white"/>
</svg>
