<svg width="64" height="64" viewBox="0 0 64 64" fill="none" xmlns="http://www.w3.org/2000/svg">
<path d="M55.2518 18.7503H51.9183C51.4806 18.7503 51.0471 18.8365 50.6426 19.004C50.2383 19.1715 49.8708 19.417 49.5611 19.7265C49.2516 20.0363 49.0061 20.4038 48.8386 20.808C48.6711 21.2125 48.5848 21.646 48.5848 22.0838V35.4185C48.5848 39.839 46.8288 44.0784 43.7031 47.2041C40.5773 50.3299 36.3381 52.0859 31.9176 52.086C29.7288 52.086 27.5614 51.6549 25.5392 50.8173C23.517 49.9796 21.6797 48.7519 20.1319 47.2042C18.5842 45.6565 17.3566 43.8191 16.519 41.7969C15.6814 39.7747 15.2503 37.6073 15.2503 35.4185L15.2503 22.0848C15.2504 21.647 15.1643 21.2133 14.9969 20.8088C14.8294 20.4043 14.5839 20.0365 14.2743 19.727C13.9647 19.4173 13.5972 19.1718 13.1927 19.004C12.7882 18.8365 12.3547 18.7503 11.9168 18.7503H8.58331L8.58331 35.4178C8.58331 38.482 9.18687 41.5163 10.3595 44.3474C11.5322 47.1784 13.251 49.7507 15.4178 51.9175C17.5846 54.0842 20.1569 55.803 22.988 56.9756C25.819 58.1483 28.8533 58.7518 31.9176 58.7518C38.1061 58.7518 44.0413 56.2934 48.4173 51.9174C52.7933 47.5414 55.2518 41.6063 55.2518 35.4178V18.7503Z" fill="url(#paint0_linear_1034_3925)"/>
<path d="M31.9176 45.419C34.5698 45.419 37.1133 44.3654 38.9886 42.4901C40.8641 40.6147 41.9176 38.0712 41.9176 35.419V18.7503C41.9176 16.982 42.6201 15.2865 43.8703 14.0363C45.1206 12.786 46.8163 12.0835 48.5846 12.0835L55.2516 12.0835V5.4165L48.5848 5.4165C45.0486 5.4165 41.6571 6.82126 39.1563 9.32176C36.6558 11.8225 35.2511 15.214 35.2511 18.7503L35.2511 35.4185C35.2511 36.3026 34.8998 37.1505 34.2748 37.7757C33.6496 38.4008 32.8017 38.752 31.9176 38.752C31.0335 38.752 30.1856 38.4008 29.5604 37.7757C28.9353 37.1505 28.5841 36.3026 28.5841 35.4185L28.5841 18.7503C28.5841 15.214 27.1793 11.8225 24.6787 9.32176C22.1781 6.82126 18.7866 5.41651 15.2503 5.41651L8.58331 5.41651L8.58331 12.0845H15.2503C17.0183 12.0845 18.7138 12.7868 19.9641 14.0368C21.2143 15.2868 21.9168 16.9823 21.9171 18.7503V35.4185C21.917 36.7318 22.1756 38.0323 22.6782 39.2456C23.1807 40.459 23.9174 41.5614 24.846 42.4901C25.7746 43.4187 26.8771 44.1553 28.0905 44.6579C29.3038 45.1604 30.6043 45.4191 31.9176 45.419Z" fill="url(#paint1_linear_1034_3925)"/>
<defs>
<linearGradient id="paint0_linear_1034_3925" x1="31.959" y1="-5.75199" x2="-4.33862" y2="54.8266" gradientUnits="userSpaceOnUse">
<stop stop-color="#FDAE8F"/>
<stop offset="1" stop-color="#FD1C68"/>
</linearGradient>
<linearGradient id="paint1_linear_1034_3925" x1="31.959" y1="-5.75199" x2="-4.33862" y2="54.8266" gradientUnits="userSpaceOnUse">
<stop stop-color="#FDAE8F"/>
<stop offset="1" stop-color="#FD1C68"/>
</linearGradient>
</defs>
</svg>
